<?xml version="1.0" standalone="no"?>
<!DOCTYPE svg PUBLIC "-//W3C//DTD SVG 20010904//EN"
 "http://www.w3.org/TR/2001/REC-SVG-20010904/DTD/svg10.dtd">
<svg version="1.0" xmlns="http://www.w3.org/2000/svg"
 width="640.000000pt" height="640.000000pt" viewBox="0 0 640.000000 640.000000"
 preserveAspectRatio="xMidYMid meet">
<metadata>
Created by potrace 1.14, written by Peter Selinger 2001-2017
</metadata>
<g transform="translate(0.000000,640.000000) scale(0.100000,-0.100000)"
fill="#000000" stroke="none">
<path d="M3435 6393 c-12 -2 -43 -21 -70 -41 -47 -36 -84 -92 -104 -157 -5
-16 -25 -73 -44 -125 -19 -52 -89 -246 -156 -430 -67 -184 -124 -342 -128
-350 -3 -8 -7 -19 -9 -25 -3 -15 -84 -237 -94 -260 -15 -35 -161 -438 -176
-487 -8 -26 -18 -49 -23 -52 -4 -3 -80 65 -167 150 -605 591 -604 590 -697
598 -47 3 -128 -22 -162 -52 -32 -27 -209 -262 -235 -312 -7 -14 -16 -27 -19
-30 -12 -10 -51 -69 -51 -78 0 -4 -8 -17 -17 -28 -10 -11 -24 -30 -31 -42 -6
-12 -18 -32 -25 -44 -6 -12 -18 -28 -24 -36 -7 -7 -13 -19 -13 -27 0 -7 -4
-15 -8 -17 -18 -7 -195 -346 -263 -504 -62 -144 -71 -166 -75 -179 -2 -5 -25
-73 -52 -150 -77 -224 -130 -440 -158 -644 -2 -19 -6 -46 -9 -60 -26 -154 -27
-619 -1 -761 3 -14 7 -41 10 -60 21 -134 66 -315 101 -410 9 -25 18 -49 19
-55 1 -5 4 -14 7 -20 4 -5 12 -27 19 -49 7 -21 26 -68 42 -105 17 -36 29 -66
27 -67 -2 0 2 -8 9 -16 7 -9 27 -44 44 -79 54 -110 177 -296 275 -419 63 -80
272 -296 337 -349 123 -101 307 -231 325 -231 6 0 11 -3 11 -8 0 -4 28 -22 63
-40 34 -18 85 -45 112 -60 169 -91 531 -215 692 -237 15 -2 42 -6 58 -9 146
-26 207 -30 415 -31 200 0 258 3 390 24 36 5 81 12 101 15 20 3 48 10 63 15
14 6 26 9 26 6 0 -6 181 44 270 76 47 17 90 32 95 33 6 1 26 9 45 18 19 8 59
25 88 38 29 13 76 36 105 51 29 16 63 34 77 41 41 20 204 121 218 135 7 7 17
13 22 13 5 0 15 6 22 13 7 7 42 35 78 62 100 76 106 82 235 210 67 66 151 158
188 205 37 47 73 92 80 100 16 18 126 184 146 220 7 14 21 39 29 55 8 17 25
44 36 60 12 17 20 32 20 35 -1 3 11 32 27 65 55 121 78 175 72 175 -3 0 -1 6
4 13 22 28 103 299 119 397 2 14 6 34 9 46 3 12 7 39 10 60 4 21 8 50 11 64
13 76 19 187 19 375 0 189 -4 264 -20 375 -3 19 -7 53 -10 75 -3 22 -7 51 -10
65 -3 14 -10 52 -16 85 -11 60 -43 195 -74 310 -69 252 -240 656 -384 905 -18
30 -35 63 -38 73 -3 9 -9 17 -14 17 -5 0 -9 5 -9 11 0 38 -441 672 -520 749
-3 3 -25 30 -50 60 -25 30 -47 57 -50 60 -3 3 -20 23 -39 45 -191 225 -566
599 -786 786 -22 19 -46 39 -53 46 -100 95 -186 126 -287 106z m425 -883 c238
-238 280 -284 489 -535 9 -11 30 -38 46 -60 16 -22 32 -42 36 -45 6 -6 97
-127 119 -160 8 -12 32 -45 53 -73 21 -29 48 -69 59 -89 12 -21 25 -38 30 -38
4 0 8 -5 8 -10 0 -12 52 -94 63 -98 4 -2 7 -9 7 -16 0 -6 11 -27 23 -46 49
-73 210 -379 252 -480 10 -25 29 -69 42 -98 13 -29 23 -54 23 -57 0 -2 5 -16
12 -32 6 -15 12 -31 13 -35 2 -5 3 -9 4 -10 2 -2 4 -13 7 -26 2 -13 11 -36 19
-52 8 -16 15 -37 15 -48 0 -10 3 -22 7 -26 4 -3 8 -12 10 -19 1 -7 12 -48 24
-92 11 -44 22 -87 24 -95 2 -8 8 -33 14 -55 5 -22 13 -56 16 -75 3 -19 8 -42
10 -50 4 -14 11 -65 20 -145 2 -16 6 -57 10 -90 4 -33 8 -136 7 -230 0 -182 0
-183 -14 -290 -15 -119 -16 -124 -22 -142 -3 -10 -7 -29 -10 -43 -14 -69 -30
-128 -62 -228 -29 -88 -25 -79 -97 -232 -59 -127 -144 -267 -232 -385 -67 -89
-241 -269 -336 -348 -87 -72 -331 -232 -369 -242 -3 -1 -48 -22 -100 -47 -81
-39 -214 -90 -269 -104 -9 -2 -61 -15 -116 -29 -55 -14 -120 -28 -145 -31 -25
-2 -52 -6 -60 -9 -56 -17 -356 -24 -485 -12 -258 24 -495 92 -740 212 -222
109 -381 222 -561 400 -180 177 -311 362 -419 589 -52 110 -117 277 -130 336
-2 8 -13 52 -25 98 -11 46 -23 101 -25 122 -2 22 -6 43 -8 47 -25 43 -27 504
-2 663 2 14 6 45 9 70 3 25 8 56 11 70 3 14 8 36 10 50 2 14 7 36 10 50 3 14
10 43 14 65 33 149 104 363 181 546 44 104 177 377 210 429 56 90 140 234 140
241 0 5 3 9 8 9 4 1 25 30 47 65 22 36 44 65 49 65 4 0 30 -21 56 -47 26 -27
152 -149 279 -273 128 -124 285 -276 349 -338 64 -63 134 -123 155 -134 74
-37 177 -28 249 23 40 29 70 86 123 234 26 72 50 139 55 150 5 11 14 36 20 55
16 47 69 193 115 315 20 55 38 105 39 110 2 6 7 21 13 35 6 14 34 90 62 170
29 80 80 219 113 310 83 227 135 371 166 461 26 75 28 76 47 61 11 -9 117
-113 235 -232z"/>
<path d="M4560 2601 c-89 -27 -157 -100 -174 -186 -21 -114 -71 -270 -95 -299
-5 -6 -9 -15 -9 -19 1 -14 -82 -148 -130 -212 -70 -93 -192 -207 -289 -271
-48 -31 -100 -66 -115 -76 -15 -10 -31 -18 -37 -18 -5 0 -26 -9 -48 -19 -53
-27 -181 -68 -239 -77 -161 -23 -255 -162 -210 -313 25 -87 124 -161 215 -161
60 0 173 26 302 70 523 178 928 608 1084 1151 27 97 39 163 38 214 -3 81 -59
164 -136 199 -43 20 -119 28 -157 17z"/>
</g>
</svg>
