<svg width="65" height="80" viewBox="0 0 65 80" fill="none" xmlns="http://www.w3.org/2000/svg">
<path d="M53.1412 50.8664C52.3751 55.158 50.3162 59.1111 47.2419 62.1936C44.1675 65.2761 40.2252 67.3399 35.9457 68.1073C35.7833 68.1334 35.6191 68.147 35.4545 68.1481C34.7134 68.1479 33.9994 67.8684 33.4542 67.365C32.909 66.8616 32.5723 66.1711 32.5109 65.4304C32.4496 64.6897 32.668 63.9529 33.123 63.3662C33.5779 62.7795 34.2361 62.3857 34.967 62.2628C41.0866 61.2295 46.2793 56.022 47.317 49.8738C47.4483 49.0988 47.8812 48.4078 48.5205 47.9529C49.1597 47.4979 49.953 47.3163 50.7259 47.4479C51.4987 47.5795 52.1877 48.0136 52.6414 48.6547C53.095 49.2958 53.2761 50.0914 53.1449 50.8664H53.1412ZM65 47.4072C65 56.0513 61.5759 64.3414 55.481 70.4538C49.386 76.5661 41.1195 80 32.5 80C23.8805 80 15.614 76.5661 9.51903 70.4538C3.4241 64.3414 0 56.0513 0 47.4072C0 37.0663 4.0625 26.4922 12.0619 15.981C12.3151 15.6482 12.6358 15.3729 13.0028 15.1734C13.3698 14.9739 13.7748 14.8546 14.1911 14.8235C14.6074 14.7924 15.0255 14.85 15.418 14.9927C15.8104 15.1354 16.1682 15.3599 16.4679 15.6514L25.3759 24.3218L33.5009 1.94756C33.6632 1.50131 33.9301 1.10074 34.2791 0.779624C34.6282 0.458503 35.0491 0.226244 35.5064 0.102428C35.9636 -0.0213889 36.4439 -0.0331335 36.9067 0.0681841C37.3694 0.169502 37.8011 0.380912 38.1653 0.684591C46.2423 7.40686 65 25.3885 65 47.4072ZM59.0909 47.4072C59.0909 30.3367 45.873 15.5847 37.5929 8.02539L29.3682 30.6441C29.1994 31.1086 28.9173 31.5234 28.5478 31.8507C28.1782 32.178 27.7328 32.4073 27.2522 32.5177C26.7716 32.6282 26.2711 32.6163 25.7963 32.4831C25.3215 32.3499 24.8875 32.0997 24.5338 31.7552L14.7949 22.281C8.89687 30.8182 5.90909 39.259 5.90909 47.4072C5.90909 54.4797 8.71062 61.2625 13.6974 66.2635C18.6842 71.2645 25.4477 74.074 32.5 74.074C39.5523 74.074 46.3158 71.2645 51.3026 66.2635C56.2894 61.2625 59.0909 54.4797 59.0909 47.4072Z" fill="url(#paint0_linear_1_18)"/>
<defs>
<linearGradient id="paint0_linear_1_18" x1="32" y1="-14" x2="33" y2="80" gradientUnits="userSpaceOnUse">
<stop stop-color="#BBF7D0"/>
<stop offset="0.5" stop-color="#4ADE80"/>
<stop offset="1" stop-color="#22D3EE"/>
</linearGradient>
</defs>
</svg>
